<?xml version="1.0" encoding="utf-8"?>
<!-- Generator: Adobe Illustrator 22.1.0, SVG Export Plug-In . SVG Version: 6.00 Build 0)  -->
<svg version="1.1" id="Layer_1" xmlns="http://www.w3.org/2000/svg" xmlns:xlink="http://www.w3.org/1999/xlink" x="0px" y="0px"
	 width="223.9px" height="40px" viewBox="0 0 223.9 40" style="enable-background:new 0 0 223.9 40;" xml:space="preserve">
<style type="text/css">
	.st0{fill:#004685;}
	.st1{fill:#008ED7;}
	.st2{fill:#8C8C8C;}
</style>
<path class="st0" d="M76.8,19.8l-0.2-0.1c-1-0.5-1.3-2-1.7-3.1l-5-13.2h-4.8v0.4l0.3,0.1c0,0,0.2,0.1,0.3,0.1
	c0.3,0.2,0.4,0.5,0.2,1.3C65.8,5.6,65.7,6,65.7,6l-3.9,10.6c-0.4,1.2-0.8,2.6-1.7,3.1l-0.3,0.1v0.4h5.3v-0.4l-0.4-0.1
	c-0.4-0.2-0.5-0.7-0.1-2.1l0.7-2h5.6c0.1,0.4,0.3,1,0.7,1.7c0.3,0.8,0.7,2,0.1,2.3l-0.3,0.1v0.4H77L76.8,19.8L76.8,19.8z M70,13.1
	L70,13.1h-3.8L68,7.9L70,13.1z"/>
<path class="st0" d="M111.3,3.4v0.4l0.4,0.1c0.7,0.2,0.7,1.8,0.5,2.7v10.3c0,0.9,0,2.5-0.5,2.8l-0.4,0.1v0.4h5.4v-0.4l-0.4-0.1
	c-0.7-0.2-0.7-2-0.5-2.8V6.7c0-1.4,0.2-2.6,0.5-2.8l0.4-0.1V3.4H111.3z"/>
<path class="st0" d="M91.1,3.4v0.4l0.3,0.1c0.7,0.2,0.7,1.8,0.5,2.7v10.3c0,0.9,0,2.5-0.5,2.8L91,19.8v0.4h5.4v-0.4L96,19.7
	c-0.7-0.2-0.7-2-0.5-2.8V6.7c0-1.4,0.2-2.6,0.5-2.8l0.4-0.1V3.4H91.1z"/>
<path class="st0" d="M150.8,6.7L150.8,6.7c0-1,0-2.5-0.5-2.7l-0.4-0.1V3.4h5.4v0.4l-0.4,0.1c-0.4,0.2-0.7,1.4-0.5,2.8v10.2
	c0,0.9,0,2.5,0.5,2.8l0.4,0.1v0.4h-5.4v-0.4l0.4-0.1c0.7-0.2,0.5-2,0.5-2.8C150.8,17,150.8,6.7,150.8,6.7z"/>
<path class="st0" d="M60.7,2c-1.3-1.2-3.1-2-5.2-2h-6.9v0.4l0.3,0.1c0.9,0.4,0.9,2.6,0.9,4.2c0,1.8,0,10.6,0,10.7v0.4
	c0,1.2,0,3.5-0.9,3.8l-0.4,0.1v0.4h6.4v-0.4l-0.3-0.1c-1.1-0.8-1.1-2.4-1.1-4v-3.6l0.7,0.2c0,0,1.1,0.3,2.1,0.3
	c2.9,0,6.2-2.1,6.2-6.5C62.4,4.6,61.8,3,60.7,2L60.7,2z M54.5,11.1L54.5,11.1h-0.5h-0.3V3.5c0.4,0,1-0.1,1.5-0.1
	c1.3,0,2.4,0.3,2.9,1c0.5,0.5,0.9,1.3,0.9,2.4C58.8,9.4,56.5,10.9,54.5,11.1z"/>
<path class="st0" d="M89.4,15.7L89.4,15.7C89,15.9,88.9,16,88.9,16c-1,0.7-2.6,1.4-4.3,1.4c-1.3,0-2.4-0.4-3.3-1.3
	c-1.1-1.1-1.6-2.7-1.6-4.8c0-3.1,1.8-5.2,4.4-5.2c1.2,0,2.5,0.4,3.7,1.3l1,0.7V3.7l-0.4-0.1c-1.6-0.4-2.9-0.7-4.1-0.7
	c-2.3,0-4.2,0.8-5.7,2.3C76.9,6.8,76,9.1,76,11.8s0.9,4.9,2.4,6.5c1.5,1.5,3.8,2.4,6.5,2.4c1.3,0,2.5-0.2,3.6-0.8h0.1l0.1-0.1
	l0.1-0.1l1.2-3.9L89.4,15.7L89.4,15.7z"/>
<path class="st0" d="M131.1,15.7l-0.4,0.3c-1,0.7-2.6,1.4-4.3,1.4c-1.3,0-2.4-0.4-3.3-1.3c-1.1-1.1-1.6-2.7-1.6-4.8
	c0-3.1,1.8-5.2,4.4-5.2c1.2,0,2.5,0.4,3.7,1.3l1,0.7V3.7l-0.4-0.1c-1.6-0.4-2.9-0.7-4.1-0.7c-2.3,0-4.2,0.8-5.7,2.3
	c-1.6,1.6-2.5,3.9-2.5,6.6s0.9,4.9,2.4,6.5c1.5,1.5,3.8,2.4,6.5,2.4c1.3,0,2.5-0.2,3.6-0.8l0.2-0.1l1.2-4.1
	C131.6,15.7,131.1,15.7,131.1,15.7z"/>
<path class="st0" d="M108.5,3.4h-4.4h-5.4v0.4L99,3.9c0.7,0.2,0.7,1.8,0.5,2.7v10.3c0,0.9,0,2.5-0.5,2.8l-0.4,0.1v0.4h5.4v-0.4
	l-0.4-0.1c-0.7-0.2-0.7-2-0.5-2.8v-3.4h3l0,0l0,0c0,0,1.3-0.1,1.5,0.4l0.1,0.2l0.3,0.1l0.3-4.6h-0.4l-0.1,0.3
	c-0.1,0.3-1.3,0.4-1.6,0.4l0,0h-3c0-1.5,0-3.4,0-4.1h4c0.9,0,1.4,0.2,1.5,0.7l0.1,0.3h0.4l1-4C110.2,3.3,108.9,3.4,108.5,3.4z"/>
<path class="st0" d="M167.1,3.4h-4.4h-5.4v0.4l0.4,0.1c0.7,0.2,0.7,1.8,0.5,2.7v10.3c0,0.9,0,2.5-0.5,2.8l-0.4,0.1v0.4h5.4v-0.4
	l-0.4-0.1c-0.7-0.2-0.7-2-0.5-2.8v-3.4h3l0,0l0,0c0,0,1.3-0.1,1.5,0.4l0.1,0.2l0.3,0.1l0.2-4.6h-0.4l-0.1,0.3
	c-0.1,0.3-1.3,0.4-1.6,0.4l0,0h-3c0-1.5,0-3.4,0-4.1h4c0.9,0,1.4,0.2,1.5,0.7l0.1,0.3h0.4l1-4C168.8,3.3,167.5,3.4,167.1,3.4z"/>
<path class="st0" d="M181.1,16.1c-1,0.9-2.7,1.3-4.4,1.3c-1.7,0-2.5-0.2-2.5-0.2c0-0.1,0-0.2,0-0.3v-4h2.5c0,0,1.3,0,1.5,0.4
	l0.1,0.2l0.4,0.1l0.2-4.2h-0.4l-0.2,0.3c-0.1,0.3-1.2,0.4-1.6,0.4h-2.6c0-1.4,0-3,0-3.8h3.1c0.9,0,1.7,0,2,0.7l0.1,0.3h0.4l0.8-4
	c0,0-1.3,0.1-1.6,0.1h-9.3v0.4L170,4c0.7,0.2,0.7,1.8,0.5,2.7V17c0,0.8,0,2.5-0.5,2.8c-0.1,0.1-0.4,0.1-0.4,0.1v0.4h10.8l1.1-4.1
	L181.1,16.1L181.1,16.1z"/>
<path class="st0" d="M148.6,15.3l-0.2,0.2c-1.4,1.3-3,1.8-4.9,1.8s-2.6-0.1-2.6-0.1V4.1c0-1.2,0-3.1,1-3.5l0.4-0.1V0h-6.3v0.4
	l0.4,0.1c0.9,0.3,0.8,2.4,0.8,3.5v12.2c0,1.1,0,3.1-0.8,3.4l-0.4,0.1v0.4h11.3l1.8-5.1h-0.5V15.3z"/>
<path class="st1" d="M40.4,19.8c0-0.2,0-0.3,0-0.5c-0.1,0-5.2,0.3-7.8,0.3c-3.4,0-8.1,0-8.1,0L2.4,19.4V19l22-0.1
	c0,0,4.8,0.1,8.1,0.1c2.5,0,7.7,0,7.8,0c0-0.3,0-0.7-0.1-1c-0.1,0-5.2,0.4-7.7,0.4c-3.4,0-8.1-0.2-8.1-0.2h-5.6L11.2,18l-8.9-0.1
	c0.1-0.1,0.2-0.4,0.2-0.5c0.3,0,0.5,0.1,1.6,0.1c1.4,0,2.1-0.3,2.1-0.3s1,0.3,2.4,0.3c0.7,0,2.1-0.7,2.9-0.4c1.4,0.4,2-0.2,2-0.2
	s0.3,0.4,1,0.5c0.5,0.1,1.1-0.2,1.1-0.2s0.8,0.5,3,0.5c2.8,0,3.6-1.5,3.6-1.5h0.1c0,0-0.1,0.4,0.1,0.8c0.3,0.7,1.2,0.8,1.2,0.8
	c-0.1-1.7,0.7-2.9,0.7-2.9h0.1v0.4c-0.3,1.3,0.2,2.4,0.2,2.4l0.3-0.1c0,0-0.2-0.8,0-2c0.2-1.1,0.7-1.6,0.7-1.6h0.1
	c0,0-0.3,0.9-0.2,1.5c0,0.5,0.3,1.8,1.4,2.3c0.9,0.3,1.4-0.3,1.4-0.3s1.7,0.4,3.3,0.4c3.5,0,4.2-0.5,4.2-0.5s0.2,0.4,2,0.4
	c1,0,1.8-0.1,2.3-0.1c0.1,0,0.2,0,0.3,0c0-0.3-0.1-0.5-0.1-0.9c-1-5.3-4.1-10-8.5-12.9l-0.3,0.5c4.2,2.8,7.3,7.2,8.2,12.4
	c-0.5,0.2-1.2,0.3-2.1,0.3c-1.3,0-1.6-0.4-1.6-0.4s-0.5,0.3-1.4,0.3c-0.8,0-1.4-0.5-1.4-0.5s-0.9,0.8-2.2,0.8
	c-1.7,0-2.6-1.1-2.8-1.5c-0.3-0.4-0.4-0.9-0.4-0.9h-0.2c0,0.2,0.1,0.4,0.2,0.7c0.2,0.7,0.3,0.9,0.4,1c0,0.1,0.1,0.3-0.1,0.4
	c-0.1,0-0.2,0-0.3-0.1c-0.1-0.1-0.4-0.5-0.7-1.2c-0.2-0.7-0.3-1.2-0.3-1.6h-0.1c0,0.3-0.1,0.9-0.1,1.5c0,0.8,0.2,1.2,0.3,1.3
	c0,0,0,0.1,0.1,0.1c0,0.2-0.1,0.3-0.3,0.3c-0.1,0-0.3-0.2-0.3-0.3c-0.8-1.2,0.1-3.6,0.4-4.3c0.4-1.1,0.5-2.1,0.5-2.1
	s0.5-0.8,0.8-1.3c0.3-0.7,0.5-1.3,0.8-1.5c0.3-0.3,0.9-1.2,1.4-2.2c0.1-0.2,0.5-1.2,0.7-1.5c0.1-0.2,0.2-0.4,0.2-0.5
	c0.3-1,0.4-2.1,0.4-2.2c0-0.2-0.4-0.4-0.4-0.4s-0.3-0.2-0.5-0.2c-0.1,0-0.3,0.1-0.5,0.2c-0.2,0.1-0.3,0-0.3,0s-0.3-0.1-0.5-0.1
	c-0.1,0-0.3,0.2-0.4,0.3c-0.2,0.1-0.3,0-0.3,0S28,0.9,27.9,1c-0.2,0.1-0.3,0.1-0.7,0.4c-2.2-0.8-4.4-1.2-6.9-1.2
	C9.4,0.2,0.5,9,0.4,19.8c0,0.1,0,0.5,0,0.5h40C40.4,20.4,40.4,19.9,40.4,19.8L40.4,19.8z M14.8,15.8L14.8,15.8L14.8,15.8
	c0.4-1.8,1.7-5.4,3.8-8.2c0.2,0.1,0.4,0.2,0.7,0.3C17.8,9.8,15.9,13,14.8,15.8L14.8,15.8z M16.1,16.5L16.1,16.5
	c0.4-1.6,1.4-5,3.7-8.1c0.2,0.1,0.4,0.2,0.7,0.4C18.9,10.6,17.1,13.9,16.1,16.5C16.1,16.5,16.2,16.5,16.1,16.5L16.1,16.5z
	 M17.6,16.8L17.6,16.8L17.6,16.8c0.2-1.3,1.1-4.7,3.1-7.9C21,9,21.2,9.2,21.3,9.3C20,11.5,18.4,14.4,17.6,16.8L17.6,16.8z
	 M19.3,16.8L19.3,16.8c-0.1,0,0,0-0.1,0c0.3-1.2,1-4.1,2.8-7.2c0.2,0.2,0.4,0.3,0.5,0.4C21.2,12.1,19.8,14.6,19.3,16.8L19.3,16.8z
	 M24.5,11.5L24.5,11.5c-0.4,0-1-0.2-1.1-0.4c0,0.5,0.7,1,1.3,1.1l0,0c-0.1,0-0.2,0.1-0.4,0.1c-0.8,0-1.4-0.7-1.4-1.3
	c0-0.1,0-0.2,0-0.3c0.5,0.4,1.8,1.1,2.5,0.1v0.1C25.2,11.2,24.9,11.5,24.5,11.5L24.5,11.5z M26.7,8.3L26.7,8.3
	c0,0.2-0.2,0.3-0.3,0.4c-0.1,0.1-0.3,0.2-0.3,0.3c0,0,0,0-0.1,0L25.9,9l0,0V8.9V8.8V8.7c0,0,0-0.2,0-0.3c0-0.2,0.2-0.3,0.2-0.3h0.1
	c0,0-0.1,0.1-0.2,0.3c0,0.1-0.1,0.3,0,0.4v0.1l0,0c0,0,0.1,0,0.1-0.1c0.1-0.1,0.2-0.1,0.2-0.1s-0.2-0.1-0.1-0.3s0.3-0.1,0.3-0.1
	c0.1-0.2,0-0.4,0-0.4h0.1C26.6,7.8,26.7,8.1,26.7,8.3L26.7,8.3z M27.7,1.6L27.7,1.6c0.2-0.1,0.3-0.2,0.5-0.3s0.4,0,0.5,0
	s0.4-0.2,0.5-0.2s0.3,0,0.4,0.1C29.9,1.3,30.3,1,30.4,1s0.3,0,0.3,0.3c-0.1,0.2-0.2,1-0.5,1.8C30.1,3.5,30,3.7,29.8,4
	c-0.2,0.3-0.3,0.7-0.5,1c-0.9,1.4-1.7,1.1-3.5,2c-1.3,0.7-1.8,1.1-2.1,1.3c-0.1-0.1-0.2-0.1-0.3-0.2c0.2-0.2,0.8-0.7,2-1.2
	c1.2-0.7,3.1-1.5,3.6-2.2V4.6c-0.4,0.3-0.9,0.5-1.1,0.7c-2,1-2.6,1.2-3.5,1.6c-0.4,0.2-1,0.5-1.4,0.9c-0.1-0.1-0.2-0.1-0.3-0.2
	c0.3-0.3,0.9-0.7,1.5-1c0.9-0.4,1.6-0.8,3.7-2.1C28,4.3,29,3.7,29.9,3.1c0-0.1,0-0.1,0-0.2c-0.8,0.4-3,1.6-3.5,1.8
	c-2,1-1.8,0.9-2.7,1.3c-0.5,0.3-1.1,0.7-1.5,1c-0.1-0.1-0.2-0.2-0.3-0.2c0.4-0.3,0.9-0.7,1.5-1c0.9-0.3,1-0.4,2.9-1.4
	c1-0.5,2.7-1.6,3.7-2.3c0-0.1,0-0.1,0-0.2c-1,0.5-3.7,2-4.2,2.2c-2,1-2.2,1.1-3,1.5c-0.5,0.2-1,0.5-1.3,0.8
	c-0.1-0.1-0.1-0.1-0.2-0.2c0.3-0.2,0.9-0.7,1.6-1.1c0.9-0.4,1-0.5,2.9-1.5c0.2-0.1,1.1-0.7,2.1-1.2c0.2-0.1,0.5-0.3,0.8-0.5
	c0.2-0.1,0.3-0.3,0.5-0.3H29c-0.4,0.3-1,0.7-1.1,0.7c-1,0.5-2.3,1.2-2.7,1.4c-2,1-2.2,1.1-3,1.5c-0.4,0.2-1,0.5-1.4,0.9
	c-0.1-0.1-0.2-0.2-0.2-0.2c0.4-0.3,1-0.8,1.6-1.1c0.9-0.4,1.1-0.5,3-1.5c0.3-0.2,0.7-0.3,0.9-0.5C26.1,2.6,26.9,2.2,27.7,1.6
	L27.7,1.6z M21.2,1.2L21.2,1.2c1.8,0,3.7,0.3,5.4,0.8c-0.3,0.2-0.8,0.5-1.4,0.9C23,3.9,22.7,4,21.7,4.6c-0.7,0.3-1.1,0.7-1.5,1l0,0
	c0,0-0.4-0.5-0.7-0.8s-0.8-0.3-1-0.4c-0.3-0.2-0.4-0.3-0.9-0.4c-0.4-0.1-0.7-0.1-1-0.1c-0.2,0-0.5-0.2-0.9-0.1
	c-0.2,0-0.5,0.2-0.8,0.2c-0.3,0-0.5-0.1-0.9,0c-0.2,0-0.5,0.3-0.9,0.3c-0.2,0-0.5,0-0.8,0s-0.5,0.3-0.8,0.4
	c-0.2,0.1-0.7,0.1-0.5,0.4c0,0.3,0.8,0.4,0.8,0.4s3.1,0.4,6.1,2C17.7,8,17.3,8.6,17,9.2C16.8,9.1,16.4,9,16.2,9
	c-0.3,0-0.7,0.1-0.9,0.1c-0.4,0-0.5-0.1-1,0s-0.4,0.2-0.8,0.3c-0.2,0.1-0.5,0-0.9,0.1c-0.2,0.1-0.5,0.4-0.8,0.5s-0.4,0.1-0.7,0.2
	c-0.2,0-0.2,0.1-0.7,0.4c-0.2,0.1-0.3,0-0.5,0.3c-0.1,0.1-0.2,0.3-0.5,0.7c-0.5,0.3-0.5,0.7-0.4,0.8c0.1,0.3,0.9,0,0.9,0
	s2.5-0.9,5.6-1c-0.8,1.6-1.5,3.1-1.8,4.1c-0.1,0.2-0.2,0.4-0.2,0.7c-0.1,0,0,0-0.1,0c-0.2-0.1-0.2-0.4-0.1-1c0.1-0.5,0.5-1.6,0.7-2
	h-0.2c-0.1,0.3-0.7,1.1-0.8,1.3c-0.1,0.3-0.2,0.4-0.5,1.1c0.1,0.1-0.1,0.5-0.2,0.5c-0.1,0-0.3-0.1-0.3-0.2c0-0.1,0.1-0.2,0.1-0.2
	c0.4-0.7,0.7-1.3,0.8-1.5h-0.2c0,0-1.1,2.6-3.5,2.6c-0.9,0-1.6-0.4-1.6-0.4S6.5,17,4.8,17c-1.2,0-2-0.2-2.2-0.3
	C4.3,7.8,11.7,1.2,21.2,1.2z"/>
<g>
	<path class="st2" d="M13.1,29.3c0-1,0.2-1.6,0.7-2.2c0.3-0.4,0.9-0.9,2-0.9c1,0,1.6,0.4,1.8,0.9c0.4,0.5,0.7,1.2,0.7,2.2v0.7h-1.5
		v-0.7c0-0.8-0.2-1.3-0.4-1.4c-0.2-0.2-0.5-0.2-0.7-0.2c-0.2,0-0.4,0-0.8,0.2c-0.2,0.2-0.4,0.7-0.4,1.4v4.6c0,0.7,0.1,1.1,0.3,1.3
		c0,0.1,0.1,0.1,0.2,0.2c0.1,0.1,0.3,0.1,0.5,0.1c0.5,0,0.8-0.2,0.9-0.3c0.2-0.3,0.3-0.8,0.3-1.3v-0.8h1.4v0.7c0,1-0.2,1.6-0.7,2.2
		c-0.3,0.4-0.9,0.9-1.8,0.9c-0.5,0-0.9-0.1-1.2-0.3c-0.3-0.1-0.5-0.3-0.7-0.5c-0.4-0.5-0.7-1.2-0.7-2.2
		C13.1,33.7,13.1,29.3,13.1,29.3z"/>
	<polygon class="st2" points="25.1,26.2 25.1,27.7 22.1,27.7 22.1,30.9 25.1,30.9 25.1,32.2 22.1,32.2 22.1,35.5 25.1,35.5 
		25.1,36.8 20.7,36.8 20.7,26.2 	"/>
	<polygon class="st2" points="32.7,36.8 28.1,36.8 28.1,26.2 29.5,26.2 29.5,35.5 32.7,35.5 	"/>
	<polygon class="st2" points="39.7,26.2 39.7,27.7 36.7,27.7 36.7,30.9 39.7,30.9 39.7,32.2 36.7,32.2 36.7,35.5 39.7,35.5 
		39.7,36.8 35.4,36.8 35.4,26.2 	"/>
	<path class="st2" d="M44.2,32.2v3.3h0.7c0.3,0,0.7,0,0.9-0.2c0.2-0.2,0.3-0.7,0.3-1.4s-0.1-1.2-0.3-1.4c-0.2-0.2-0.5-0.2-0.9-0.2
		H44.2L44.2,32.2z M44.2,27.7L44.2,27.7v3.3h0.7c0.3,0,0.5,0,0.7-0.1c0.1-0.1,0.2-0.1,0.2-0.2c0.2-0.2,0.3-0.7,0.3-1.3
		c0-0.8-0.1-1.2-0.3-1.4c-0.2-0.2-0.5-0.2-0.9-0.2H44.2L44.2,27.7z M42.8,36.8L42.8,36.8V26.2h2.1c0.9,0,1.5,0.2,2,0.8
		c0.4,0.4,0.7,1.2,0.7,2.2s-0.2,1.6-0.7,2.2l-0.1,0.1c0.1,0.1,0.1,0.1,0.1,0.1c0.4,0.5,0.7,1.2,0.7,2.2s-0.2,1.7-0.7,2.2
		c-0.4,0.5-1.1,0.8-2,0.8L42.8,36.8L42.8,36.8z"/>
	<path class="st2" d="M51.6,30.9h0.9c0.3,0,0.7,0,0.8-0.1s0.2-0.1,0.2-0.2c0.2-0.2,0.3-0.8,0.3-1.3c0-0.7-0.1-1.1-0.3-1.4
		c-0.2-0.2-0.5-0.2-1-0.2h-0.9V30.9L51.6,30.9z M55.2,36.8L55.2,36.8h-1.4v-3.1c0-1-0.4-1.4-1.3-1.4h-0.9v4.4h-1.3V26.1h2.2
		c1.8,0,2.7,1.1,2.7,3c0,1-0.2,1.7-0.7,2.2c0,0,0,0-0.1,0.1l-0.1,0.1c0.5,0.5,0.8,1.2,0.8,2.1L55.2,36.8L55.2,36.8z"/>
	<path class="st2" d="M60.7,32.5h1.2l-0.7-2.6L60.7,32.5L60.7,32.5z M62.3,33.8L62.3,33.8h-1.8l-0.7,2.9h-1.4l2.4-10.5h1.1l2.5,10.5
		h-1.4L62.3,33.8z"/>
	<polygon class="st2" points="66.7,26.2 72.7,26.2 72.7,27.7 70.4,27.7 70.4,36.8 69.1,36.8 69.1,27.7 66.7,27.7 	"/>
	<rect x="75.9" y="26.2" class="st2" width="1.3" height="10.5"/>
	<polygon class="st2" points="84.4,36.8 81.9,30.5 81.9,36.8 80.5,36.8 80.5,26.2 81.7,26.2 84.2,32.6 84.2,26.2 85.6,26.2 
		85.6,36.8 	"/>
	<path class="st2" d="M88.7,29.3c0-1.8,0.9-3,2.5-3s2.5,1.1,2.5,3v0.7h-1.4v-0.7c0-0.8-0.1-1.2-0.3-1.4c-0.2-0.2-0.4-0.2-0.8-0.2
		s-0.5,0-0.8,0.2c-0.2,0.2-0.3,0.7-0.3,1.4v4.6c0,0.9,0.2,1.2,0.4,1.4c0.2,0.2,0.5,0.2,0.8,0.2c0.2,0,0.5,0,0.8-0.2
		c0.2-0.2,0.4-0.7,0.4-1.4v-0.8h-1.6v-1.4h3v2.2c0,1-0.2,1.6-0.7,2.2c-0.3,0.4-0.9,0.9-1.8,0.9c-1,0-1.6-0.4-1.9-0.8
		c-0.4-0.5-0.8-1-0.8-2.2L88.7,29.3L88.7,29.3z"/>
	<polygon class="st2" points="103.2,28.6 105,26.2 106.3,26.2 106.3,36.8 104.8,36.8 104.8,28.7 104.3,29.5 	"/>
	<path class="st2" d="M113.7,26.2v1.4h-3.1v2.5c0.3-0.1,0.5-0.2,0.9-0.2c1,0,1.4,0.4,1.7,0.9c0.3,0.5,0.5,1.2,0.5,2.1v1
		c0,0.8-0.2,1.4-0.5,2c-0.4,0.7-1,1-1.7,1c-0.7,0-1.3-0.2-1.6-0.8c-0.3-0.4-0.5-1-0.5-1.5v-0.2h1.3v0.2c0,0.1,0.1,0.3,0.2,0.5
		s0.3,0.3,0.7,0.3c0.3,0,0.5-0.2,0.7-0.5c0.1-0.3,0.2-0.8,0.2-1v-1c0-0.3,0-0.7-0.1-0.9c-0.1-0.4-0.2-0.5-0.4-0.7
		c-0.1,0-0.2-0.1-0.4-0.1c-0.4,0-0.5,0.1-0.7,0.3c-0.2,0.2-0.3,0.5-0.3,1.1v0.4h-1.3v-6.8H113.7z"/>
	<path class="st2" d="M118.1,33.7c0,0.4,0,0.8,0.1,1c0.1,0.4,0.3,0.7,0.5,0.7c0.1,0,0.2,0,0.2,0c0.1,0,0.3,0,0.5-0.2
		c0.1-0.1,0.2-0.2,0.2-0.5c0.1-0.2,0.1-0.5,0.1-1v-4.4c0-0.4,0-0.8-0.1-1c-0.1-0.4-0.3-0.7-0.5-0.7c-0.1,0-0.2,0-0.2,0
		c-0.1,0-0.3,0-0.5,0.2c-0.1,0.1-0.2,0.3-0.2,0.4c-0.1,0.2-0.1,0.5-0.1,1V33.7L118.1,33.7z M116.8,29.3L116.8,29.3
		c0-1.8,0.7-3,2.3-3c1.5,0,2.3,1.2,2.3,3v4.4c0,1.8-0.8,3-2.3,3s-2.3-1.3-2.3-3V29.3z"/>
	<polygon class="st2" points="134,30.1 136.2,26.2 137.7,26.2 134.6,31.7 134.6,36.8 133.3,36.8 133.3,31.7 130.3,26.2 131.9,26.2 	
		"/>
	<polygon class="st2" points="144.5,26.2 144.5,27.7 141.5,27.7 141.5,30.9 144.5,30.9 144.5,32.2 141.5,32.2 141.5,35.5 
		144.5,35.5 144.5,36.8 140.2,36.8 140.2,26.2 	"/>
	<path class="st2" d="M149.9,32.5h1.2l-0.7-2.6L149.9,32.5L149.9,32.5z M151.4,33.8L151.4,33.8h-1.8l-0.7,2.9h-1.4l2.4-10.5h1.1
		l2.5,10.5h-1.4L151.4,33.8z"/>
	<path class="st2" d="M157.3,30.9h0.9c0.3,0,0.7,0,0.8-0.1c0.1-0.1,0.2-0.1,0.2-0.2c0.2-0.2,0.3-0.8,0.3-1.3c0-0.7-0.1-1.1-0.3-1.4
		c-0.2-0.2-0.5-0.3-1-0.3h-0.9V30.9L157.3,30.9z M160.9,36.8L160.9,36.8h-1.4v-3.1c0-1-0.4-1.4-1.3-1.4h-0.9v4.4H156V26.1h2.2
		c1.8,0,2.7,1.1,2.7,3c0,1-0.2,1.7-0.7,2.2c0,0,0,0-0.1,0.1l-0.1,0.1c0.5,0.5,0.8,1.2,0.8,2.1v3.1H160.9z"/>
	<path class="st2" d="M164,33.2h1.3v0.7c0,0.7,0.1,1.1,0.3,1.3c0,0.1,0.1,0.1,0.2,0.2c0.1,0.1,0.3,0.1,0.5,0.1c0.5,0,0.8-0.2,1-0.5
		c0.1-0.3,0.2-0.8,0.2-1c0-0.5-0.2-0.9-0.4-1.1c-0.2-0.2-0.5-0.4-0.9-0.5l-0.2-0.1c-0.3-0.1-0.9-0.3-1.3-0.8
		c-0.5-0.5-0.9-1.3-0.9-2.1c0-0.9,0.2-1.6,0.7-2.2c0.4-0.5,1.1-0.9,1.8-0.9c1,0,1.6,0.4,2,0.9c0.4,0.5,0.7,1.3,0.7,2.2V30h-1.4v-0.7
		c0-0.8-0.2-1.3-0.4-1.4c-0.2-0.2-0.5-0.2-0.8-0.2c-0.5,0-0.9,0.3-1,0.7c-0.2,0.3-0.2,0.8-0.2,1c0,0.5,0.2,0.9,0.4,1.1
		s0.5,0.4,0.9,0.5l0.2,0.1c0.2,0.1,0.8,0.3,1.2,0.8c0.5,0.5,0.9,1.2,0.9,2.1c0,1.6-0.9,2.9-2.5,2.9c-1.6,0-2.5-1.1-2.5-3v-0.7
		C163.8,33.2,164,33.2,164,33.2z"/>
</g>
<rect x="0.4" y="39.2" class="st2" width="181.3" height="0.8"/>
<rect x="0.4" y="23" class="st2" width="181.3" height="0.8"/>
</svg>
